<svg width="40" height="40" viewBox="0 0 40 40" fill="none" xmlns="http://www.w3.org/2000/svg">
<g clip-path="url(#clip0_34_60)">
<path d="M30.625 0H9.375C4.19733 0 0 4.19733 0 9.375V30.625C0 35.8027 4.19733 40 9.375 40H30.625C35.8027 40 40 35.8027 40 30.625V9.375C40 4.19733 35.8027 0 30.625 0Z" fill="#5865F2"/>
<mask id="mask0_34_60" style="mask-type:luminance" maskUnits="userSpaceOnUse" x="4" y="7" width="32" height="26">
<path d="M4.375 7.96875H35.625V32.1766H4.375V7.96875Z" fill="white"/>
</mask>
<g mask="url(#mask0_34_60)">
<path d="M30.8293 10.1245C28.8032 9.19462 26.6651 8.53143 24.4685 8.15154C24.4485 8.14789 24.4279 8.15061 24.4096 8.1593C24.3913 8.16799 24.3761 8.18222 24.3663 8.19998C24.0916 8.68841 23.7872 9.32591 23.5743 9.82685C21.1722 9.46716 18.7827 9.46716 16.4301 9.82685C16.2169 9.31466 15.9016 8.68841 15.6257 8.19998C15.6155 8.18251 15.6003 8.16852 15.582 8.15988C15.5638 8.15123 15.5433 8.14832 15.5233 8.15154C13.3265 8.53057 11.1883 9.19379 9.16256 10.1245C9.14531 10.132 9.13072 10.1445 9.12069 10.1604C5.06944 16.2129 3.95975 22.1167 4.50412 27.9473C4.50744 27.9761 4.52205 28.0024 4.54475 28.0204C7.21756 29.9834 9.80678 31.1751 12.3479 31.965C12.3676 31.9708 12.3887 31.9705 12.4083 31.9641C12.4279 31.9577 12.4451 31.9455 12.4576 31.929C13.0587 31.1081 13.5944 30.2426 14.054 29.3325C14.0603 29.32 14.0639 29.3063 14.0646 29.2924C14.0652 29.2784 14.0629 29.2645 14.0578 29.2515C14.0527 29.2385 14.0449 29.2267 14.0348 29.2169C14.0248 29.2072 14.0129 29.1996 13.9997 29.1948C13.1497 28.8723 12.3405 28.4794 11.5621 28.0329C11.5479 28.0246 11.536 28.0129 11.5274 27.9988C11.5188 27.9848 11.5138 27.9689 11.5129 27.9524C11.5119 27.936 11.515 27.9196 11.5218 27.9046C11.5287 27.8897 11.5392 27.8767 11.5522 27.8667C11.7165 27.7439 11.8779 27.6175 12.0363 27.4873C12.0502 27.4759 12.067 27.4685 12.0848 27.4661C12.1027 27.4637 12.1208 27.4663 12.1372 27.4736C17.2516 29.8086 22.7883 29.8086 27.8422 27.4736C27.8588 27.4658 27.8771 27.4629 27.8952 27.4651C27.9133 27.4673 27.9304 27.4746 27.9446 27.4861C28.1032 27.6169 28.265 27.7438 28.4299 27.8667C28.4431 27.8766 28.4536 27.8895 28.4606 27.9044C28.4675 27.9193 28.4707 27.9357 28.4699 27.9521C28.469 27.9685 28.4642 27.9845 28.4557 27.9986C28.4472 28.0127 28.4354 28.0245 28.4213 28.0329C27.6424 28.4877 26.8266 28.876 25.9824 29.1936C25.9693 29.1986 25.9575 29.2064 25.9476 29.2163C25.9377 29.2262 25.93 29.2381 25.925 29.2512C25.92 29.2643 25.9178 29.2783 25.9186 29.2923C25.9193 29.3063 25.923 29.32 25.9294 29.3325C26.3969 30.2354 26.93 31.1029 27.5244 31.9278C27.5366 31.9446 27.5537 31.9572 27.5733 31.9639C27.593 31.9705 27.6142 31.9709 27.6341 31.965C30.1876 31.1751 32.7768 29.9834 35.4497 28.0204C35.4612 28.012 35.4707 28.0012 35.4777 27.9888C35.4847 27.9764 35.489 27.9627 35.4904 27.9486C36.1419 21.2078 34.399 15.3523 30.8699 10.1617C30.8613 10.1448 30.8469 10.1316 30.8293 10.1245ZM14.8177 24.3972C13.2779 24.3972 12.0091 22.9836 12.0091 21.2475C12.0091 19.5114 13.2533 18.0978 14.8177 18.0978C16.3943 18.0978 17.6507 19.5239 17.626 21.2475C17.626 22.9836 16.3819 24.3972 14.8177 24.3972ZM25.2015 24.3972C23.6616 24.3972 22.393 22.9836 22.393 21.2475C22.393 19.5114 23.6371 18.0978 25.2015 18.0978C26.778 18.0978 28.0344 19.5239 28.0099 21.2475C28.0099 22.9836 26.778 24.3972 25.2015 24.3972Z" fill="white"/>
</g>
</g>
<defs>
<clipPath id="clip0_34_60">
<rect width="40" height="40" fill="white"/>
</clipPath>
</defs>
</svg>
