<svg width="40" height="40" viewBox="0 0 40 40" fill="none" xmlns="http://www.w3.org/2000/svg">
<g clip-path="url(#clip0_198_122)">
<path d="M20 0C23.6285 0 26.9748 0.913121 30.0391 2.73936C33.1033 4.5656 35.5295 7.04344 37.3177 10.1729C39.1059 13.3023 40 16.7199 40 20.4255C40 24.8759 38.7283 28.8785 36.1849 32.4335C33.6415 35.9885 30.3559 38.4486 26.3281 39.8138C25.8594 39.9025 25.5122 39.8404 25.2865 39.6277C25.0608 39.4149 24.9479 39.1489 24.9479 38.8298C24.9479 38.7766 24.9523 38.0984 24.9609 36.7952C24.9696 35.492 24.974 34.2996 24.974 33.2181C24.974 31.4982 24.5226 30.2394 23.6198 29.4415C24.6094 29.3351 25.4991 29.1755 26.2891 28.9628C27.079 28.75 27.895 28.4043 28.737 27.9255C29.579 27.4468 30.2821 26.8573 30.8464 26.1569C31.4106 25.4566 31.8707 24.5257 32.2266 23.3644C32.5825 22.203 32.7604 20.8688 32.7604 19.3617C32.7604 17.2518 32.0747 15.4255 30.7031 13.883C31.3455 12.2695 31.276 10.461 30.4948 8.45745C30.0087 8.29787 29.3056 8.39539 28.3854 8.75C27.4653 9.10461 26.6667 9.49468 25.9896 9.92021L25 10.5585C23.3854 10.0975 21.7188 9.86702 20 9.86702C18.2812 9.86702 16.6146 10.0975 15 10.5585C14.7222 10.3635 14.3533 10.1241 13.8932 9.84043C13.4332 9.55674 12.7083 9.21543 11.7188 8.81649C10.7292 8.41755 9.99132 8.29787 9.50521 8.45745C8.72396 10.461 8.65451 12.2695 9.29688 13.883C7.92535 15.4255 7.23958 17.2518 7.23958 19.3617C7.23958 20.8688 7.41753 22.1986 7.77344 23.3511C8.12934 24.5035 8.58507 25.4344 9.14062 26.1436C9.69618 26.8528 10.395 27.4468 11.237 27.9255C12.079 28.4043 12.895 28.75 13.6849 28.9628C14.4748 29.1755 15.3646 29.3351 16.3542 29.4415C15.6771 30.0798 15.2517 30.9929 15.0781 32.1809C14.7135 32.3582 14.3229 32.4911 13.9062 32.5798C13.4896 32.6684 12.9948 32.7128 12.4219 32.7128C11.849 32.7128 11.2804 32.5222 10.7161 32.141C10.1519 31.7598 9.67014 31.2057 9.27083 30.4787C8.94097 29.9113 8.51997 29.4504 8.00781 29.0957C7.49566 28.7411 7.06597 28.5284 6.71875 28.4574L6.19792 28.3777C5.83333 28.3777 5.5816 28.4176 5.44271 28.4973C5.30382 28.5771 5.26042 28.6791 5.3125 28.8032C5.36458 28.9273 5.44271 29.0514 5.54688 29.1755C5.65104 29.2996 5.76389 29.406 5.88542 29.4947L6.06771 29.6277C6.44965 29.805 6.82726 30.1418 7.20052 30.6383C7.57378 31.1348 7.84722 31.5869 8.02083 31.9947L8.28125 32.6064C8.50694 33.2801 8.88889 33.8254 9.42708 34.242C9.96528 34.6587 10.5469 34.9246 11.1719 35.0399C11.7969 35.1551 12.4002 35.2172 12.9818 35.2261C13.5634 35.2349 14.0451 35.2039 14.4271 35.133L15.026 35.0266C15.026 35.7004 15.0304 36.4849 15.0391 37.3803C15.0477 38.2757 15.0521 38.7589 15.0521 38.8298C15.0521 39.1489 14.9392 39.4149 14.7135 39.6277C14.4878 39.8404 14.1406 39.9025 13.6719 39.8138C9.6441 38.4486 6.35851 35.9885 3.8151 32.4335C1.2717 28.8785 0 24.8759 0 20.4255C0 16.7199 0.894097 13.3023 2.68229 10.1729C4.47049 7.04344 6.8967 4.5656 9.96094 2.73936C13.0252 0.913121 16.3715 0 20 0ZM7.57812 29.3351C7.63021 29.211 7.56944 29.1046 7.39583 29.016C7.22222 28.9628 7.10938 28.9805 7.05729 29.0691C7.00521 29.1933 7.06597 29.2996 7.23958 29.3883C7.39583 29.4947 7.50868 29.4769 7.57812 29.3351ZM8.38542 30.2394C8.50694 30.1507 8.48958 30.0089 8.33333 29.8138C8.15972 29.6543 8.02083 29.6277 7.91667 29.734C7.79514 29.8227 7.8125 29.9645 7.96875 30.1596C8.14236 30.3369 8.28125 30.3635 8.38542 30.2394ZM9.16667 31.4362C9.32292 31.3121 9.32292 31.1436 9.16667 30.9308C9.02778 30.7004 8.88021 30.6472 8.72396 30.7713C8.56771 30.8599 8.56771 31.0195 8.72396 31.25C8.88021 31.4805 9.02778 31.5426 9.16667 31.4362ZM10.2604 32.5532C10.3993 32.4113 10.3646 32.2429 10.1562 32.0479C9.94792 31.8351 9.77431 31.8085 9.63542 31.9681C9.47917 32.1099 9.51389 32.2784 9.73958 32.4734C9.94792 32.6862 10.1215 32.7128 10.2604 32.5532ZM11.7448 33.2181C11.7969 33.023 11.684 32.8812 11.4062 32.7926C11.1458 32.7216 10.9809 32.7837 10.9115 32.9787C10.842 33.1738 10.9549 33.3067 11.25 33.3777C11.5104 33.484 11.6753 33.4309 11.7448 33.2181ZM13.3854 33.3511C13.3854 33.1206 13.2378 33.023 12.9427 33.0585C12.6649 33.0585 12.526 33.156 12.526 33.3511C12.526 33.5816 12.6736 33.6791 12.9688 33.6436C13.2465 33.6436 13.3854 33.5461 13.3854 33.3511ZM14.8958 33.0851C14.8611 32.8901 14.7049 32.8103 14.4271 32.8457C14.1493 32.8989 14.0278 33.0319 14.0625 33.2447C14.0972 33.4574 14.2535 33.5284 14.5312 33.4574C14.809 33.3865 14.9306 33.2624 14.8958 33.0851Z" fill="#F5F5F5"/>
</g>
<defs>
<clipPath id="clip0_198_122">
<rect width="40" height="40" fill="white"/>
</clipPath>
</defs>
</svg>
