<svg width="99" height="21" viewBox="0 0 99 21" fill="none" xmlns="http://www.w3.org/2000/svg">
<path d="M28.1107 0L21.8016 20.517H19.2609L14.0553 3.85885L8.81886 20.517H6.30667L0 0H2.5098L7.62473 16.8106L12.8612 0H15.2185L20.455 16.8106L25.5675 0H28.1083H28.1107Z" fill="#EBFFCB"/>
<path d="M42.2568 12.5848V13.4428H29.305C29.4075 15.0755 29.9891 16.3888 31.0497 17.3779C32.1104 18.3695 33.3259 18.8628 34.694 18.8628C37.1633 18.8628 38.8794 17.7807 39.8376 15.6165L41.9184 16.1075C41.3273 17.6592 40.4025 18.8485 39.1488 19.6756C37.8927 20.5027 36.4078 20.915 34.694 20.915C32.6109 20.915 30.8161 20.1809 29.305 18.7103C27.7939 17.2397 27.0383 15.3424 27.0383 13.0138C27.0383 10.6851 27.8034 8.75213 29.336 7.27199C30.8662 5.79186 32.7039 5.05298 34.849 5.05298C36.9941 5.05298 38.6411 5.75134 40.0402 7.15044C41.4393 8.54954 42.1782 10.361 42.2592 12.5848H42.2568ZM34.8466 7.10277C33.5404 7.10277 32.3606 7.51511 31.3095 8.34217C30.2584 9.16924 29.6196 10.2871 29.3956 11.6957H39.8996C39.6946 10.2466 39.1225 9.11919 38.1835 8.31119C37.2444 7.50557 36.1313 7.10277 34.8466 7.10277Z" fill="#EBFFCB"/>
<path d="M50.2175 5.05292C52.1362 5.05292 53.6568 5.54868 54.7794 6.53783C55.902 7.52935 56.4645 8.9213 56.4645 10.7184V20.5169H54.1979V18.2192C52.8512 20.0164 50.9611 20.9149 48.5323 20.9149C46.8782 20.9149 45.5506 20.4859 44.5519 19.6279C43.5509 18.7698 43.0527 17.6591 43.0527 16.291C43.0527 14.9229 43.5842 13.7455 44.6449 12.8779C45.7055 12.0103 47.1976 11.5765 49.1163 11.5765H54.2002V10.871C54.2002 9.70785 53.8523 8.78783 53.1587 8.11569C52.4651 7.44116 51.526 7.10509 50.3414 7.10509C49.1568 7.10509 48.2487 7.37681 47.4931 7.91547C46.7376 8.45652 46.2776 9.19778 46.1155 10.1345L43.8798 9.64349C44.1253 8.27538 44.8284 7.16945 45.9916 6.32093C47.1547 5.4748 48.5633 5.05054 50.2175 5.05054V5.05292ZM48.8708 18.9867C50.3605 18.9867 51.6213 18.5267 52.6534 17.6091C53.683 16.6914 54.2002 15.5569 54.2002 14.2102V13.4141H49.0877C47.884 13.4141 46.9497 13.6739 46.2847 14.1959C45.6221 14.7155 45.2908 15.4044 45.2908 16.2624C45.2908 17.0585 45.6174 17.7116 46.2704 18.2216C46.9235 18.7317 47.7911 18.9867 48.8732 18.9867H48.8708Z" fill="#EBFFCB"/>
<path d="M72.572 5.42004L65.8959 20.517H63.3551L56.679 5.42004H59.2197L64.6398 17.7593L70.0288 5.42004H72.5696H72.572Z" fill="#EBFFCB"/>
<path d="M87.3305 12.5848V13.4428H74.3787C74.4812 15.0755 75.0628 16.3888 76.1235 17.3779C77.1841 18.3695 78.3997 18.8628 79.7678 18.8628C82.2371 18.8628 83.9532 17.7807 84.9113 15.6165L86.9945 16.1075C86.4034 17.6592 85.4786 18.8485 84.2225 19.6756C82.9664 20.5027 81.4815 20.915 79.7678 20.915C77.6846 20.915 75.8899 20.1809 74.3787 18.7103C72.8676 17.2397 72.1121 15.3424 72.1121 13.0138C72.1121 10.6851 72.8772 8.75213 74.4097 7.27199C75.9399 5.79186 77.7776 5.05298 79.9203 5.05298C82.0631 5.05298 83.7124 5.75134 85.1115 7.15044C86.5106 8.54954 87.2495 10.361 87.3305 12.5848ZM79.9203 7.10277C78.6142 7.10277 77.4344 7.51511 76.3833 8.34217C75.3321 9.16924 74.6934 10.2871 74.4693 11.6957H84.9733C84.7683 10.2466 84.1963 9.11919 83.2572 8.31119C82.3181 7.50557 81.205 7.10277 79.9203 7.10277Z" fill="#EBFFCB"/>
<path d="M97.9276 5.26746C98.3567 5.26746 98.7142 5.30798 99.0002 5.38901L98.8167 7.62471C98.6332 7.60564 98.3376 7.59373 97.9276 7.59373C95.9875 7.59373 94.4931 8.2468 93.442 9.55294C92.3908 10.8591 91.8641 12.5752 91.8641 14.6965V20.5145H89.5068V5.42H91.8641V9.1263C93.2727 6.55453 95.2939 5.26746 97.9276 5.26746Z" fill="#EBFFCB"/>
<path d="M4.29028 10.647C4.29028 10.647 6.98361 12.5514 10.8568 10.4873" stroke="#EBFFCB" stroke-width="0.715042" stroke-miterlimit="10"/>
<path d="M3.5752 8.50186C3.5752 8.50186 6.60459 9.78893 10.9592 8.34216" stroke="#EBFFCB" stroke-width="0.715042" stroke-miterlimit="10"/>
<path d="M3.5752 6.35671C3.5752 6.35671 7.06222 7.64379 11.5741 6.19702" stroke="#EBFFCB" stroke-width="0.715042" stroke-miterlimit="10"/>
<path d="M2.3833 3.81354C2.3833 3.81354 6.56392 6.09453 12.6013 3.5752" stroke="#EBFFCB" stroke-width="0.715042" stroke-miterlimit="10"/>
<path d="M2.14502 1.2204C2.14502 1.2204 6.6474 3.50139 13.1495 0.982056" stroke="#EBFFCB" stroke-width="0.715042" stroke-miterlimit="10"/>
<path d="M17.1611 10.647C17.1611 10.647 19.8545 12.5514 23.7276 10.4873" stroke="#EBFFCB" stroke-width="0.715042" stroke-miterlimit="10"/>
<path d="M4.29028 13.0304C4.29028 13.0304 6.98361 14.9348 10.8568 12.8707" stroke="#EBFFCB" stroke-width="0.715042" stroke-miterlimit="10"/>
<path d="M17.1611 13.0304C17.1611 13.0304 19.8545 14.9348 23.7276 12.8707" stroke="#EBFFCB" stroke-width="0.715042" stroke-miterlimit="10"/>
<path d="M16.6846 8.50186C16.6846 8.50186 19.7926 9.78893 24.2569 8.34216" stroke="#EBFFCB" stroke-width="0.715042" stroke-miterlimit="10"/>
<path d="M16.2075 6.35671C16.2075 6.35671 19.7255 7.64379 24.2803 6.19702" stroke="#EBFFCB" stroke-width="0.715042" stroke-miterlimit="10"/>
<path d="M15.2544 3.81354C15.2544 3.81354 19.4922 6.09453 25.6154 3.5752" stroke="#EBFFCB" stroke-width="0.715042" stroke-miterlimit="10"/>
<path d="M14.3008 1.2204C14.3008 1.2204 19.399 3.50139 26.764 0.982056" stroke="#EBFFCB" stroke-width="0.715042" stroke-miterlimit="10"/>
</svg>
