<svg width="181" height="73" viewBox="0 0 181 73" fill="none" xmlns="http://www.w3.org/2000/svg">
<path d="M115.123 27L109.26 46.339H106.899L102.062 30.6373L97.1953 46.339H94.8607L89 27H91.3323L96.0856 42.8455L100.952 27H103.142L108.009 42.8455L112.76 27H115.121H115.123Z" fill="#EBFFCB"/>
<path d="M128.269 38.8622V39.671H116.233C116.328 41.21 116.869 42.4479 117.854 43.3802C118.84 44.3148 119.969 44.7799 121.241 44.7799C123.536 44.7799 125.13 43.7599 126.021 41.72L127.954 42.1828C127.405 43.6453 126.546 44.7664 125.381 45.546C124.213 46.3256 122.833 46.7142 121.241 46.7142C119.305 46.7142 117.637 46.0223 116.233 44.6361C114.829 43.2499 114.126 41.4616 114.126 39.2666C114.126 37.0717 114.837 35.2497 116.262 33.8545C117.684 32.4593 119.391 31.7629 121.385 31.7629C123.378 31.7629 124.909 32.4211 126.209 33.7399C127.509 35.0587 128.196 36.7661 128.271 38.8622H128.269ZM121.383 33.695C120.169 33.695 119.072 34.0837 118.096 34.8632C117.119 35.6428 116.525 36.6965 116.317 38.0243H126.078C125.888 36.6583 125.356 35.5956 124.484 34.834C123.611 34.0747 122.576 33.695 121.383 33.695Z" fill="#EBFFCB"/>
<path d="M135.667 31.7629C137.45 31.7629 138.863 32.2302 139.906 33.1625C140.95 34.0971 141.472 35.4092 141.472 37.1031V46.3391H139.366V44.1733C138.114 45.8673 136.358 46.7142 134.101 46.7142C132.564 46.7142 131.33 46.3099 130.402 45.5011C129.472 44.6923 129.009 43.6453 129.009 42.3558C129.009 41.0662 129.503 39.9564 130.488 39.1386C131.474 38.3208 132.861 37.9119 134.644 37.9119H139.368V37.2469C139.368 36.1506 139.045 35.2834 138.4 34.6498C137.756 34.014 136.883 33.6972 135.782 33.6972C134.681 33.6972 133.837 33.9534 133.135 34.4611C132.433 34.9711 132.006 35.6698 131.855 36.5527L129.777 36.0899C130.006 34.8003 130.659 33.7579 131.74 32.9581C132.821 32.1605 134.13 31.7606 135.667 31.7606V31.7629ZM134.415 44.8967C135.8 44.8967 136.971 44.4631 137.931 43.5982C138.887 42.7332 139.368 41.6638 139.368 40.3945V39.6441H134.617C133.498 39.6441 132.63 39.889 132.012 40.381C131.396 40.8708 131.089 41.52 131.089 42.3288C131.089 43.0792 131.392 43.6948 131.999 44.1756C132.606 44.6563 133.412 44.8967 134.418 44.8967H134.415Z" fill="#EBFFCB"/>
<path d="M156.44 32.1089L150.236 46.3391H147.875L141.671 32.1089H144.032L149.069 43.7397L154.077 32.1089H156.438H156.44Z" fill="#EBFFCB"/>
<path d="M170.156 38.8622V39.671H158.12C158.215 41.21 158.755 42.4479 159.741 43.3802C160.727 44.3148 161.856 44.7799 163.128 44.7799C165.422 44.7799 167.017 43.7599 167.907 41.72L169.843 42.1828C169.294 43.6453 168.435 44.7664 167.267 45.546C166.1 46.3256 164.72 46.7142 163.128 46.7142C161.192 46.7142 159.524 46.0223 158.12 44.6361C156.715 43.2499 156.013 41.4616 156.013 39.2666C156.013 37.0717 156.724 35.2497 158.148 33.8545C159.57 32.4593 161.278 31.7629 163.269 31.7629C165.261 31.7629 166.793 32.4211 168.093 33.7399C169.394 35.0587 170.08 36.7661 170.156 38.8622ZM163.269 33.695C162.056 33.695 160.959 34.0837 159.982 34.8632C159.006 35.6428 158.412 36.6965 158.204 38.0243H167.965C167.775 36.6583 167.243 35.5956 166.37 34.834C165.498 34.0747 164.463 33.695 163.269 33.695Z" fill="#EBFFCB"/>
<path d="M180.003 31.9651C180.402 31.9651 180.734 32.0033 181 32.0797L180.829 34.187C180.659 34.1691 180.384 34.1578 180.003 34.1578C178.2 34.1578 176.811 34.7734 175.835 36.0046C174.858 37.2357 174.368 38.8533 174.368 40.8528V46.3368H172.178V32.1089H174.368V35.6024C175.677 33.1783 177.556 31.9651 180.003 31.9651Z" fill="#EBFFCB"/>
<path d="M92.9873 37.0357C92.9873 37.0357 95.4902 38.8308 99.0895 36.8852" stroke="#EBFFCB" stroke-width="0.715042" stroke-miterlimit="10"/>
<path d="M92.3223 35.0138C92.3223 35.0138 95.1375 36.227 99.1842 34.8633" stroke="#EBFFCB" stroke-width="0.715042" stroke-miterlimit="10"/>
<path d="M92.3223 32.9918C92.3223 32.9918 95.5627 34.205 99.7556 32.8413" stroke="#EBFFCB" stroke-width="0.715042" stroke-miterlimit="10"/>
<path d="M91.2153 30.5947C91.2153 30.5947 95.1003 32.7447 100.711 30.37" stroke="#EBFFCB" stroke-width="0.715042" stroke-miterlimit="10"/>
<path d="M90.9937 28.1503C90.9937 28.1503 95.1777 30.3003 101.22 27.9256" stroke="#EBFFCB" stroke-width="0.715042" stroke-miterlimit="10"/>
<path d="M104.947 37.0357C104.947 37.0357 107.45 38.8308 111.049 36.8852" stroke="#EBFFCB" stroke-width="0.715042" stroke-miterlimit="10"/>
<path d="M92.9873 39.2824C92.9873 39.2824 95.4902 41.0774 99.0895 39.1319" stroke="#EBFFCB" stroke-width="0.715042" stroke-miterlimit="10"/>
<path d="M104.947 39.2824C104.947 39.2824 107.45 41.0774 111.049 39.1319" stroke="#EBFFCB" stroke-width="0.715042" stroke-miterlimit="10"/>
<path d="M104.504 35.0138C104.504 35.0138 107.393 36.227 111.541 34.8633" stroke="#EBFFCB" stroke-width="0.715042" stroke-miterlimit="10"/>
<path d="M104.062 32.9918C104.062 32.9918 107.331 34.205 111.564 32.8413" stroke="#EBFFCB" stroke-width="0.715042" stroke-miterlimit="10"/>
<path d="M103.176 30.5947C103.176 30.5947 107.114 32.7447 112.804 30.37" stroke="#EBFFCB" stroke-width="0.715042" stroke-miterlimit="10"/>
<path d="M102.29 28.1503C102.29 28.1503 107.027 30.3003 113.871 27.9256" stroke="#EBFFCB" stroke-width="0.715042" stroke-miterlimit="10"/>
<path d="M38.1396 1C56.797 1 71.999 16.8501 71.999 36.5C71.999 56.1499 56.7969 72 38.1396 72C19.4825 71.9999 4.28028 56.1498 4.28027 36.5C4.28027 16.8501 19.4824 1.00013 38.1396 1Z" fill="#E0FFB1" stroke="#626262" stroke-width="2"/>
<path d="M38.1401 2.95154C55.7719 2.95154 70.1392 17.9305 70.1392 36.5004C70.139 55.07 55.7718 70.0482 38.1401 70.0482C20.5085 70.0481 6.14229 55.07 6.14209 36.5004C6.14209 17.9306 20.5084 2.95164 38.1401 2.95154Z" fill="#8BB151" stroke="#626262" stroke-width="1.89007"/>
<g clip-path="url(#clip0_819_1111)">
<path d="M38.1059 49.3292C41.0344 49.3292 43.9631 47.262 44.1557 43.1275C44.5781 43.769 44.9712 44.359 45.1652 44.6493C44.6451 46.2837 44.3245 50.8666 44.6608 53.5297C44.9031 55.0871 44.0116 62.9455 44.0093 62.9641C45.9557 60.4924 47.1421 56.5139 47.2478 53.7497C48.5883 49.6384 47.8409 44.5109 47.4829 43.687C47.1292 42.4758 45.2359 40.0667 43.6979 38.2698C43.8453 38.313 43.9652 38.3462 44.05 38.3692C44.8005 39.2994 45.8658 39.5032 46.1344 39.5658C49.693 40.9618 51.6354 42.0721 53.2303 44.1897C52.5844 41.8818 49.2994 38.601 47.3581 37.834C46.7184 37.087 45.7233 36.7313 45.357 36.6204C44.4995 35.7404 43.3561 35.2411 42.3981 35.1574C45.3817 33.9749 46.389 32.2919 46.7578 31.8877C48.2525 31.4804 49.426 30.2031 49.5739 29.5536L57.8549 19.9947L47.8236 27.7595C46.6367 28.3259 45.5601 29.4945 45.2433 29.8572C44.5946 30.1454 43.9224 30.5348 43.2876 30.9491L49.7629 21.9686L49.8739 21.6639C50.1606 18.3906 49.7232 12.9953 49.0834 10.3055L47.2478 21.0637C44.8346 24.3602 42.4301 27.6461 40.0568 30.9744C39.6666 30.3953 38.8601 30.3521 38.1059 30.9361C37.3518 30.3521 36.5453 30.3953 36.1551 30.9744C33.7818 27.6461 31.3771 24.3602 28.9641 21.0637L27.1284 10.3055C26.4887 12.9953 26.0511 18.3906 26.3379 21.6639L26.449 21.9686L32.9243 30.9491C32.2895 30.5348 31.6173 30.1454 30.9685 29.8572C30.6518 29.4945 29.5752 28.3259 28.3883 27.7595L18.3569 19.9947L26.6379 29.5536C26.7859 30.2031 27.9594 31.4804 29.454 31.8877C29.8229 32.2919 30.8301 33.9749 33.8137 35.1574C32.8555 35.2411 31.7124 35.7404 30.8549 36.6204C30.4886 36.7313 29.4935 37.087 28.8538 37.834C26.9124 38.601 23.6275 41.8818 22.9816 44.1897C24.5765 42.0721 26.5189 40.9618 30.0775 39.5658C30.3461 39.5032 31.4113 39.2994 32.1619 38.3692C32.2467 38.3462 32.3665 38.313 32.514 38.2698C30.976 40.0667 29.0826 42.4758 28.729 43.687C28.371 44.5109 27.6235 49.6384 28.9641 53.7497C29.0697 56.5139 30.2561 60.4924 32.2026 62.9641C32.2003 62.9455 31.3088 55.0871 31.551 53.5297C31.8874 50.8666 31.5668 46.2837 31.0466 44.6493C31.2407 44.359 31.6338 43.769 32.0562 43.1275C32.2487 47.262 35.1775 49.3292 38.1059 49.3292Z" fill="#2B4701"/>
<path d="M41.5763 46.6359C43.5096 44.5166 43.5098 41.0657 41.5763 38.9464C39.672 36.8592 36.5394 36.8592 34.6352 38.9464C32.7017 41.0657 32.7017 44.5166 34.6352 46.6359C36.5394 48.7228 39.672 48.7228 41.5763 46.6359Z" fill="#E0FFB0"/>
<path d="M48.3563 29.2599L48.0354 28.9701C47.324 29.3649 46.7557 29.9268 46.3335 30.3643L46.6232 30.7167C47.1593 30.4242 47.8029 29.9468 48.3563 29.2599Z" fill="#E0FFB0"/>
<path d="M45.9342 43.6951L46.1685 43.5496C45.5579 42.4294 44.5089 41.053 43.5444 39.8831C43.6078 40.024 43.6666 40.1673 43.721 40.3133C44.212 41.137 45.3285 42.6043 45.9342 43.6951Z" fill="#E0FFB0"/>
<path d="M45.8115 52.9325L46.2695 52.9973C46.6762 50.4243 46.96 46.0278 46.4654 44.7473L46.2842 44.8598C46.0834 46.6823 45.8778 51.3456 45.8115 52.9325Z" fill="#E0FFB0"/>
<path d="M40.5677 32.7486L48.7601 21.3864C48.865 20.0965 48.8817 18.7466 48.8534 17.4817L48.3518 21.3794C45.6834 25.0875 43.0292 28.7952 40.3765 32.5157C40.4378 32.5847 40.5022 32.6625 40.5677 32.7486Z" fill="#E0FFB0"/>
<path d="M41.2872 34.4061C43.5605 33.3048 45.0309 31.9908 45.658 31.3631L45.4216 31.0754C43.7277 31.8928 41.9024 33.3825 41.1934 33.9876C41.2315 34.1206 41.2635 34.2598 41.2872 34.4061Z" fill="#E0FFB0"/>
<path d="M35.6449 32.7486L27.4523 21.3864C27.3474 20.0965 27.3307 18.7466 27.3588 17.4817L27.8606 21.3794C30.529 25.0875 33.1832 28.7952 35.8359 32.5157C35.7746 32.5847 35.7102 32.6625 35.6449 32.7486Z" fill="#E0FFB0"/>
<path d="M30.5542 31.3631L30.7908 31.0754C32.4842 31.8925 34.31 33.3828 35.0191 33.9878C34.9809 34.1206 34.949 34.2601 34.9255 34.4061C32.652 33.3045 31.1813 31.9908 30.5542 31.3631Z" fill="#E0FFB0"/>
<path d="M27.856 29.2599L28.1768 28.9701C28.8882 29.3649 29.4565 29.9268 29.8787 30.3643L29.589 30.7167C29.0529 30.4242 28.4093 29.9468 27.856 29.2599Z" fill="#E0FFB0"/>
<path d="M30.2782 43.6951L30.0439 43.5496C30.6543 42.4294 31.7033 41.0533 32.6678 39.8837C32.6044 40.0243 32.5453 40.1679 32.4912 40.3136C32 41.1375 30.8837 42.6045 30.2782 43.6951Z" fill="#E0FFB0"/>
<path d="M30.124 54.1699L30.3699 54.135C30.3405 54.9967 30.3895 56.1229 30.4704 57.2637C30.231 55.8471 30.1609 54.8081 30.124 54.1699Z" fill="#E0FFB0"/>
<path d="M39.8399 36.4533C40.8606 34.2201 39.2912 33.0756 39.2865 33.0721L38.9435 32.8157C38.9435 32.8157 38.985 33.6356 38.1061 33.6356C37.2272 33.6356 37.2687 32.8157 37.2687 32.8157L36.9256 33.0721C36.921 33.0756 35.3516 34.2201 36.3722 36.4533C36.9331 36.2709 37.5197 36.18 38.1061 36.18C38.6924 36.18 39.279 36.2709 39.8399 36.4533Z" fill="#E0FFB0"/>
<path d="M41.1476 44.8933C39.9901 46.9923 36.2219 46.9923 35.0644 44.8933C35.0644 44.8933 35.1139 45.565 35.6469 46.2472C35.6469 46.2472 33.6494 45.7741 33.2891 43.9015C33.4782 44.9044 33.9272 45.8594 34.6355 46.6358C35.5876 47.6792 36.8469 48.2011 38.106 48.2011C39.3651 48.2011 40.6244 47.6792 41.5765 46.6358C42.2848 45.8594 42.7338 44.9044 42.923 43.9015C42.5626 45.7741 40.5651 46.2472 40.5651 46.2472C41.0981 45.565 41.1476 44.8933 41.1476 44.8933Z" fill="#70750B"/>
<path d="M36.3726 36.4533C37.5278 35.4435 38.685 35.4435 39.8402 36.4533C38.7193 36.089 37.4935 36.089 36.3726 36.4533Z" fill="#70750B"/>
<path d="M40.8701 41.7714C41.6614 40.9011 42.014 39.7255 41.6794 39.0627C41.6459 39.0236 41.6114 38.9847 41.5766 38.9464C41.4954 38.8573 41.4119 38.7721 41.3263 38.6908C40.4095 37.8175 39.2579 37.3811 38.1061 37.3811C36.9542 37.3811 35.8026 37.8175 34.8859 38.6908C34.8003 38.7721 34.7168 38.8573 34.6356 38.9464C34.6008 38.9847 34.5663 39.0236 34.5327 39.0627C34.1982 39.7255 34.5508 40.9011 35.3421 41.7714C35.3421 41.7714 35.273 41.1925 35.3913 40.7273C35.3913 40.7273 35.9537 42.5673 38.1061 42.5673C40.2585 42.5673 40.8209 40.7273 40.8209 40.7273C40.9392 41.1925 40.8701 41.7714 40.8701 41.7714Z" fill="#F9FCBA"/>
<path d="M44.3644 31.6553C44.3644 31.6553 43.8698 32.7893 42.5986 33.7009C44.1348 32.7891 45.1614 31.8604 45.6583 31.3631L45.4219 31.0754C45.0714 31.2446 44.7152 31.4424 44.3644 31.6553Z" fill="#F9FCBA"/>
<path d="M47.4027 29.386C47.4027 29.386 47.627 29.9978 47.0024 30.4887C47.4468 30.1967 47.9283 29.7908 48.3561 29.2599L48.0352 28.9701C47.8102 29.0951 47.5994 29.2367 47.4027 29.386Z" fill="#F9FCBA"/>
<path d="M44.9373 41.6637C44.4922 41.0568 44.0084 40.4461 43.5444 39.8831C43.6078 40.024 43.6666 40.1673 43.721 40.3133C44.0187 40.8123 44.5458 41.548 45.0499 42.2926C44.9981 42.061 44.962 41.85 44.9373 41.6637Z" fill="#70750B"/>
<path d="M31.8481 31.6553C31.8481 31.6553 32.3427 32.7893 33.6139 33.7009C32.0777 32.7891 31.0511 31.8604 30.5542 31.3631L30.7905 31.0754C31.1411 31.2446 31.4973 31.4424 31.8481 31.6553Z" fill="#F9FCBA"/>
<path d="M28.8091 29.386C28.8091 29.386 28.5851 29.9978 29.2096 30.4887C28.7653 30.1967 28.2838 29.7908 27.856 29.2599L28.1768 28.9701C28.4019 29.0951 28.6127 29.2367 28.8091 29.386Z" fill="#F9FCBA"/>
<path d="M31.2752 41.6637C31.7204 41.0568 32.2039 40.4461 32.6681 39.8831C32.6047 40.024 32.5459 40.1673 32.4915 40.3133C32.1938 40.8123 31.6667 41.548 31.1626 42.2926C31.2144 42.061 31.2505 41.85 31.2752 41.6637Z" fill="#70750B"/>
<path d="M38.1063 34.3718C40.463 34.3718 39.5138 33.2826 39.5138 33.2826C39.3844 33.1434 39.288 33.0729 39.2867 33.0721L38.9437 32.8157C38.9437 32.8157 38.9852 33.6356 38.1063 33.6356C37.2273 33.6356 37.2688 32.8157 37.2688 32.8157L36.9258 33.0721C36.9245 33.0729 36.8281 33.1434 36.6987 33.2826C36.6987 33.2826 35.7495 34.3718 38.1063 34.3718Z" fill="#F9FCBA"/>
<path d="M27.4522 21.3864L27.8605 21.3794L27.3589 17.4817C27.3305 18.7466 27.3476 20.0965 27.4522 21.3864Z" fill="#F9FCBA"/>
<path d="M48.8531 17.4817L48.3516 21.3794L48.7598 21.3864C48.8645 20.0965 48.8815 18.7466 48.8531 17.4817Z" fill="#F9FCBA"/>
<path d="M42.0663 34.0043C41.9372 33.6589 42.1563 33.2014 42.1563 33.2014C41.7506 33.5188 41.4166 33.797 41.1934 33.9876C41.2315 34.1206 41.2635 34.2599 41.2869 34.4061C41.5583 34.2747 41.8181 34.1403 42.0663 34.0043Z" fill="#70750B"/>
<path d="M34.1461 34.0043C34.275 33.6589 34.0562 33.2014 34.0562 33.2014C34.4618 33.5188 34.7959 33.797 35.0191 33.9876C34.9809 34.1206 34.949 34.2599 34.9253 34.4061C34.6541 34.2747 34.3943 34.1403 34.1461 34.0043Z" fill="#70750B"/>
<path d="M45.9658 49.5909C46.6109 49.0517 46.7094 48.2772 46.7094 48.2772C46.7628 46.7411 46.7068 45.3726 46.4653 44.7473L46.2841 44.8598C46.171 45.8875 46.0563 47.8179 45.9658 49.5909Z" fill="#F9FCBA"/>
<path d="M30.4009 52.9325L29.9429 52.9973C29.5362 50.4243 29.2524 46.0278 29.747 44.7473L29.9282 44.8598C30.129 46.6823 30.3347 51.3456 30.4009 52.9325Z" fill="#E0FFB0"/>
<path d="M30.2465 49.5909C29.6014 49.0517 29.5029 48.2772 29.5029 48.2772C29.4496 46.7411 29.5055 45.3726 29.747 44.7473L29.9282 44.8598C30.0413 45.8875 30.156 47.8179 30.2465 49.5909Z" fill="#F9FCBA"/>
<path d="M46.0886 54.1699L45.8427 54.135C45.8721 54.9967 45.8231 56.1229 45.7422 57.2637C45.9816 55.8471 46.0517 54.8081 46.0886 54.1699Z" fill="#E0FFB0"/>
</g>
<path d="M7.50769 25.7412C7.50769 21.3981 4.14798 17.8803 0 17.8803C4.14798 17.8803 7.50769 14.3625 7.50769 10.0193C7.50769 14.3625 10.8674 17.8803 15.0154 17.8803C10.8674 17.8803 7.50769 21.3981 7.50769 25.7412Z" fill="#FFF363"/>
<defs>
<clipPath id="clip0_819_1111">
<rect width="39.498" height="52.6586" fill="white" transform="translate(18.3569 10.3055)"/>
</clipPath>
</defs>
</svg>
