<svg width="159" height="167" viewBox="0 0 159 167" fill="none" xmlns="http://www.w3.org/2000/svg">
<path d="M0 8C0 3.58172 3.58172 0 8 0H159V167H8C3.58173 167 0 163.418 0 159V8Z" fill="#EEFDB6"/>
<path d="M98.7456 106.667H100.135C103.392 106.667 105.984 105.182 108.31 103.107C114.221 97.8341 100.327 92.5 95.5833 92.5M89.9167 64.3615C90.5601 64.2339 91.2282 64.1667 91.9136 64.1667C97.07 64.1667 101.25 67.9723 101.25 72.6667C101.25 77.3611 97.07 81.1667 91.9136 81.1667C91.2282 81.1667 90.5601 81.0995 89.9167 80.9718" stroke="#70750B" stroke-width="3" stroke-linecap="round"/>
<path d="M58.6971 95.6484C55.3566 97.4385 46.5982 101.094 51.9327 105.668C54.5385 107.902 57.4408 109.5 61.0895 109.5H81.9105C85.5593 109.5 88.4615 107.902 91.0673 105.668C96.4019 101.094 87.6435 97.4385 84.303 95.6484C76.4697 91.4505 66.5303 91.4505 58.6971 95.6484Z" stroke="#70750B" stroke-width="3"/>
<path d="M82.8333 71.25C82.8333 77.5093 77.7591 82.5834 71.5 82.5834C65.2408 82.5834 60.1667 77.5093 60.1667 71.25C60.1667 64.9908 65.2408 59.9167 71.5 59.9167C77.7591 59.9167 82.8333 64.9908 82.8333 71.25Z" stroke="#70750B" stroke-width="3"/>
</svg>
