<svg width="267" height="336" viewBox="0 0 267 336" fill="none" xmlns="http://www.w3.org/2000/svg">
<circle cx="139.504" cy="127.504" r="126.504" fill="#E0FFB1" stroke="#626262" stroke-width="2"/>
<circle cx="139.504" cy="127.504" r="119.551" fill="#8BB151" stroke="#626262" stroke-width="1.89007"/>
<path d="M27.4605 89.9209C27.4605 74.7491 15.1719 62.4605 0 62.4605C15.1719 62.4605 27.4605 50.1719 27.4605 35C27.4605 50.1719 39.7491 62.4605 54.9209 62.4605C39.7491 62.4605 27.4605 74.7491 27.4605 89.9209Z" fill="#FFF363"/>
<g clip-path="url(#clip0_0_1118)">
<path d="M135.376 169.32C146.088 169.32 156.8 162.099 157.504 147.656C159.049 149.897 160.487 151.958 161.197 152.972C159.295 158.681 158.122 174.691 159.352 183.994C160.238 189.434 156.977 216.885 156.969 216.95C164.088 208.316 168.428 194.418 168.814 184.762C173.717 170.4 170.983 152.488 169.674 149.61C168.381 145.379 161.455 136.963 155.83 130.687C156.369 130.838 156.808 130.954 157.118 131.034C159.863 134.283 163.759 134.995 164.742 135.214C177.758 140.091 184.862 143.969 190.696 151.367C188.333 143.304 176.318 131.843 169.218 129.164C166.878 126.555 163.238 125.312 161.898 124.925C158.762 121.851 154.58 120.106 151.076 119.814C161.989 115.683 165.673 109.804 167.022 108.392C172.489 106.97 176.781 102.508 177.322 100.238L207.611 66.8469L170.92 93.9711C166.579 95.9499 162.641 100.032 161.483 101.299C159.11 102.306 156.651 103.666 154.329 105.113L178.013 73.742L178.42 72.6777C179.468 61.2433 177.868 42.3962 175.528 33L168.814 70.581C159.987 82.0965 151.193 93.5752 142.512 105.202C141.085 103.179 138.135 103.028 135.376 105.068C132.618 103.028 129.668 103.179 128.241 105.202C119.56 93.5752 110.765 82.0965 101.939 70.581L95.2246 33C92.8848 42.3962 91.284 61.2433 92.3333 72.6777L92.7396 73.742L116.424 105.113C114.102 103.666 111.643 102.306 109.27 101.299C108.112 100.032 104.174 95.9499 99.8327 93.9711L63.1416 66.8469L93.4306 100.238C93.9717 102.508 98.264 106.97 103.731 108.392C105.08 109.804 108.764 115.683 119.677 119.814C116.172 120.106 111.991 121.851 108.855 124.925C107.515 125.312 103.875 126.555 101.535 129.164C94.4346 131.843 82.4195 143.304 80.057 151.367C85.8906 143.969 92.9951 140.091 106.011 135.214C106.994 134.995 110.89 134.283 113.635 131.034C113.945 130.954 114.384 130.838 114.923 130.687C109.298 136.963 102.372 145.379 101.079 149.61C99.7695 152.488 97.0356 170.4 101.939 184.762C102.325 194.418 106.665 208.316 113.784 216.95C113.776 216.885 110.515 189.434 111.401 183.994C112.631 174.691 111.458 158.681 109.556 152.972C110.266 151.958 111.704 149.897 113.249 147.656C113.953 162.099 124.665 169.32 135.376 169.32Z" fill="#2B4701"/>
<path d="M148.07 159.911C155.142 152.508 155.143 140.453 148.07 133.05C141.105 125.759 129.647 125.759 122.682 133.05C115.61 140.453 115.61 152.508 122.682 159.911C129.647 167.202 141.105 167.202 148.07 159.911Z" fill="#E0FFB0"/>
<path d="M172.868 99.2128L171.695 98.2003C169.093 99.5795 167.014 101.542 165.47 103.07L166.529 104.302C168.49 103.28 170.844 101.612 172.868 99.2128Z" fill="#E0FFB0"/>
<path d="M164.009 149.638L164.866 149.13C162.633 145.217 158.796 140.409 155.268 136.322C155.5 136.814 155.715 137.315 155.914 137.825C157.71 140.702 161.794 145.828 164.009 149.638Z" fill="#E0FFB0"/>
<path d="M163.561 181.907L165.236 182.134C166.724 173.146 167.762 157.787 165.952 153.314L165.29 153.707C164.555 160.074 163.803 176.364 163.561 181.907Z" fill="#E0FFB0"/>
<path d="M144.38 111.399L174.345 71.7086C174.729 67.2023 174.79 62.4868 174.686 58.0682L172.852 71.684C163.092 84.6372 153.384 97.5894 143.681 110.586C143.905 110.827 144.141 111.099 144.38 111.399Z" fill="#E0FFB0"/>
<path d="M147.013 117.19C155.328 113.342 160.706 108.752 163 106.56L162.135 105.555C155.94 108.41 149.263 113.614 146.67 115.728C146.809 116.192 146.926 116.679 147.013 117.19Z" fill="#E0FFB0"/>
<path d="M126.375 111.399L96.4092 71.7086C96.0255 67.2023 95.9642 62.4868 96.067 58.0682L97.9025 71.684C107.663 84.6372 117.371 97.5894 127.073 110.586C126.849 110.827 126.613 111.099 126.375 111.399Z" fill="#E0FFB0"/>
<path d="M107.755 106.56L108.62 105.555C114.814 108.409 121.492 113.615 124.086 115.729C123.946 116.192 123.829 116.68 123.743 117.19C115.428 113.342 110.048 108.752 107.755 106.56Z" fill="#E0FFB0"/>
<path d="M97.886 99.2128L99.0597 98.2003C101.662 99.5795 103.74 101.542 105.285 103.07L104.225 104.302C102.264 103.28 99.91 101.612 97.886 99.2128Z" fill="#E0FFB0"/>
<path d="M106.745 149.639L105.888 149.13C108.121 145.217 111.958 140.41 115.485 136.324C115.254 136.816 115.038 137.317 114.84 137.826C113.043 140.704 108.96 145.829 106.745 149.639Z" fill="#E0FFB0"/>
<path d="M106.181 186.23L107.08 186.108C106.973 189.118 107.152 193.052 107.448 197.037C106.572 192.089 106.316 188.459 106.181 186.23Z" fill="#E0FFB0"/>
<path d="M141.719 124.341C145.452 116.54 139.712 112.542 139.695 112.53L138.44 111.634C138.44 111.634 138.592 114.498 135.377 114.498C132.162 114.498 132.314 111.634 132.314 111.634L131.059 112.53C131.042 112.542 125.302 116.54 129.035 124.341C131.087 123.704 133.232 123.386 135.377 123.386C137.522 123.386 139.668 123.704 141.719 124.341Z" fill="#E0FFB0"/>
<path d="M146.502 153.824C142.268 161.157 128.485 161.157 124.251 153.824C124.251 153.824 124.432 156.171 126.382 158.554C126.382 158.554 119.076 156.901 117.758 150.36C118.45 153.863 120.092 157.199 122.683 159.911C126.165 163.556 130.771 165.379 135.377 165.379C139.982 165.379 144.588 163.556 148.07 159.911C150.661 157.199 152.303 153.863 152.995 150.36C151.677 156.901 144.371 158.554 144.371 158.554C146.321 156.171 146.502 153.824 146.502 153.824Z" fill="#70750B"/>
<path d="M129.036 124.341C133.261 120.813 137.494 120.813 141.719 124.341C137.619 123.068 133.136 123.068 129.036 124.341Z" fill="#70750B"/>
<path d="M145.487 142.919C148.381 139.878 149.671 135.772 148.447 133.456C148.324 133.32 148.198 133.184 148.071 133.05C147.774 132.739 147.468 132.441 147.155 132.157C143.802 129.107 139.59 127.582 135.377 127.582C131.164 127.582 126.952 129.107 123.598 132.157C123.285 132.441 122.98 132.739 122.683 133.05C122.556 133.184 122.429 133.32 122.307 133.456C121.083 135.772 122.373 139.878 125.267 142.919C125.267 142.919 125.014 140.896 125.447 139.271C125.447 139.271 127.504 145.699 135.377 145.699C143.25 145.699 145.307 139.271 145.307 139.271C145.739 140.896 145.487 142.919 145.487 142.919Z" fill="#F9FCBA"/>
<path d="M158.267 107.58C158.267 107.58 156.458 111.542 151.808 114.726C157.427 111.541 161.182 108.297 163 106.56L162.135 105.555C160.853 106.146 159.55 106.837 158.267 107.58Z" fill="#F9FCBA"/>
<path d="M169.381 99.6531C169.381 99.6531 170.201 101.79 167.917 103.505C169.542 102.485 171.303 101.067 172.868 99.2128L171.694 98.2003C170.871 98.6368 170.1 99.1317 169.381 99.6531Z" fill="#F9FCBA"/>
<path d="M160.363 142.543C158.734 140.422 156.965 138.289 155.268 136.322C155.5 136.814 155.715 137.315 155.914 137.825C157.003 139.568 158.931 142.138 160.775 144.739C160.585 143.93 160.453 143.193 160.363 142.543Z" fill="#70750B"/>
<path d="M112.487 107.58C112.487 107.58 114.296 111.542 118.946 114.726C113.327 111.541 109.572 108.297 107.755 106.56L108.619 105.555C109.901 106.146 111.204 106.837 112.487 107.58Z" fill="#F9FCBA"/>
<path d="M101.372 99.6531C101.372 99.6531 100.553 101.79 102.837 103.505C101.212 102.485 99.4509 101.067 97.886 99.2128L99.0597 98.2003C99.8827 98.6368 100.654 99.1317 101.372 99.6531Z" fill="#F9FCBA"/>
<path d="M110.392 142.543C112.02 140.422 113.788 138.289 115.486 136.322C115.254 136.814 115.039 137.315 114.84 137.825C113.752 139.568 111.824 142.138 109.98 144.739C110.169 143.93 110.301 143.193 110.392 142.543Z" fill="#70750B"/>
<path d="M135.377 117.07C143.998 117.07 140.526 113.265 140.526 113.265C140.052 112.779 139.7 112.533 139.695 112.53L138.44 111.634C138.44 111.634 138.592 114.498 135.377 114.498C132.163 114.498 132.315 111.634 132.315 111.634L131.06 112.53C131.055 112.533 130.702 112.779 130.229 113.265C130.229 113.265 126.757 117.07 135.377 117.07Z" fill="#F9FCBA"/>
<path d="M96.4094 71.7086L97.9027 71.684L96.0681 58.0682C95.9644 62.4868 96.0267 67.2023 96.4094 71.7086Z" fill="#F9FCBA"/>
<path d="M174.686 58.0682L172.851 71.684L174.344 71.7086C174.727 67.2023 174.789 62.4868 174.686 58.0682Z" fill="#F9FCBA"/>
<path d="M149.863 115.786C149.39 114.579 150.192 112.981 150.192 112.981C148.708 114.09 147.486 115.062 146.67 115.728C146.809 116.192 146.926 116.679 147.012 117.19C148.005 116.731 148.955 116.261 149.863 115.786Z" fill="#70750B"/>
<path d="M120.892 115.786C121.364 114.579 120.563 112.981 120.563 112.981C122.047 114.09 123.269 115.062 124.085 115.728C123.946 116.192 123.829 116.679 123.742 117.19C122.75 116.731 121.8 116.261 120.892 115.786Z" fill="#70750B"/>
<path d="M164.125 170.234C166.485 168.351 166.845 165.645 166.845 165.645C167.04 160.279 166.836 155.499 165.952 153.314L165.29 153.707C164.876 157.297 164.456 164.041 164.125 170.234Z" fill="#F9FCBA"/>
<path d="M107.195 181.907L105.52 182.134C104.032 173.146 102.994 157.787 104.803 153.314L105.466 153.707C106.2 160.074 106.953 176.364 107.195 181.907Z" fill="#E0FFB0"/>
<path d="M106.63 170.234C104.27 168.351 103.91 165.645 103.91 165.645C103.715 160.279 103.92 155.499 104.803 153.314L105.466 153.707C105.88 157.297 106.299 164.041 106.63 170.234Z" fill="#F9FCBA"/>
<path d="M164.574 186.23L163.675 186.108C163.782 189.118 163.603 193.052 163.307 197.037C164.183 192.089 164.439 188.459 164.574 186.23Z" fill="#E0FFB0"/>
</g>
<path d="M113.111 315L106.802 335.517H104.261L99.0553 318.859L93.8189 335.517H91.3067L85 315H87.5098L92.6247 331.811L97.8612 315H100.218L105.455 331.811L110.568 315H113.108H113.111Z" fill="#EBFFCB"/>
<path d="M127.257 327.585V328.443H114.305C114.408 330.075 114.989 331.389 116.05 332.378C117.11 333.369 118.326 333.863 119.694 333.863C122.163 333.863 123.879 332.781 124.838 330.617L126.918 331.108C126.327 332.659 125.402 333.849 124.149 334.676C122.893 335.503 121.408 335.915 119.694 335.915C117.611 335.915 115.816 335.181 114.305 333.71C112.794 332.24 112.038 330.342 112.038 328.014C112.038 325.685 112.803 323.752 114.336 322.272C115.866 320.792 117.704 320.053 119.849 320.053C121.994 320.053 123.641 320.751 125.04 322.15C126.439 323.55 127.178 325.361 127.259 327.585H127.257ZM119.847 322.103C118.54 322.103 117.361 322.515 116.31 323.342C115.258 324.169 114.62 325.287 114.396 326.696H124.9C124.695 325.247 124.123 324.119 123.183 323.311C122.244 322.506 121.131 322.103 119.847 322.103Z" fill="#EBFFCB"/>
<path d="M135.217 320.053C137.136 320.053 138.657 320.549 139.779 321.538C140.902 322.529 141.465 323.921 141.465 325.718V335.517H139.198V333.219C137.851 335.016 135.961 335.915 133.532 335.915C131.878 335.915 130.551 335.486 129.552 334.628C128.551 333.77 128.053 332.659 128.053 331.291C128.053 329.923 128.584 328.745 129.645 327.878C130.706 327.01 132.198 326.576 134.116 326.576H139.2V325.871C139.2 324.708 138.852 323.788 138.159 323.116C137.465 322.441 136.526 322.105 135.341 322.105C134.157 322.105 133.249 322.377 132.493 322.915C131.738 323.457 131.278 324.198 131.115 325.134L128.88 324.643C129.125 323.275 129.828 322.169 130.992 321.321C132.155 320.475 133.563 320.051 135.217 320.051V320.053ZM133.871 333.987C135.36 333.987 136.621 333.527 137.653 332.609C138.683 331.691 139.2 330.557 139.2 329.21V328.414H134.088C132.884 328.414 131.95 328.674 131.285 329.196C130.622 329.716 130.291 330.404 130.291 331.262C130.291 332.058 130.617 332.712 131.27 333.222C131.923 333.732 132.791 333.987 133.873 333.987H133.871Z" fill="#EBFFCB"/>
<path d="M157.572 320.42L150.896 335.517H148.355L141.679 320.42H144.22L149.64 332.759L155.029 320.42H157.57H157.572Z" fill="#EBFFCB"/>
<path d="M172.331 327.585V328.443H159.379C159.481 330.075 160.063 331.389 161.123 332.378C162.184 333.369 163.4 333.863 164.768 333.863C167.237 333.863 168.953 332.781 169.911 330.617L171.994 331.108C171.403 332.659 170.479 333.849 169.222 334.676C167.966 335.503 166.482 335.915 164.768 335.915C162.685 335.915 160.89 335.181 159.379 333.71C157.868 332.24 157.112 330.342 157.112 328.014C157.112 325.685 157.877 323.752 159.41 322.272C160.94 320.792 162.778 320.053 164.92 320.053C167.063 320.053 168.712 320.751 170.112 322.15C171.511 323.55 172.25 325.361 172.331 327.585ZM164.92 322.103C163.614 322.103 162.434 322.515 161.383 323.342C160.332 324.169 159.693 325.287 159.469 326.696H169.973C169.768 325.247 169.196 324.119 168.257 323.311C167.318 322.506 166.205 322.103 164.92 322.103Z" fill="#EBFFCB"/>
<path d="M182.928 320.267C183.357 320.267 183.714 320.308 184 320.389L183.817 322.625C183.633 322.606 183.338 322.594 182.928 322.594C180.988 322.594 179.493 323.247 178.442 324.553C177.391 325.859 176.864 327.575 176.864 329.696V335.515H174.507V320.42H176.864V324.126C178.273 321.555 180.294 320.267 182.928 320.267Z" fill="#EBFFCB"/>
<path d="M89.2903 325.647C89.2903 325.647 91.9836 327.551 95.8568 325.487" stroke="#EBFFCB" stroke-width="0.715042" stroke-miterlimit="10"/>
<path d="M88.5752 323.502C88.5752 323.502 91.6046 324.789 95.9592 323.342" stroke="#EBFFCB" stroke-width="0.715042" stroke-miterlimit="10"/>
<path d="M88.5752 321.357C88.5752 321.357 92.0622 322.644 96.5741 321.197" stroke="#EBFFCB" stroke-width="0.715042" stroke-miterlimit="10"/>
<path d="M87.3833 318.814C87.3833 318.814 91.5639 321.095 97.6013 318.575" stroke="#EBFFCB" stroke-width="0.715042" stroke-miterlimit="10"/>
<path d="M87.145 316.22C87.145 316.22 91.6474 318.501 98.1495 315.982" stroke="#EBFFCB" stroke-width="0.715042" stroke-miterlimit="10"/>
<path d="M102.161 325.647C102.161 325.647 104.854 327.551 108.728 325.487" stroke="#EBFFCB" stroke-width="0.715042" stroke-miterlimit="10"/>
<path d="M89.2903 328.03C89.2903 328.03 91.9836 329.935 95.8568 327.871" stroke="#EBFFCB" stroke-width="0.715042" stroke-miterlimit="10"/>
<path d="M102.161 328.03C102.161 328.03 104.854 329.935 108.728 327.871" stroke="#EBFFCB" stroke-width="0.715042" stroke-miterlimit="10"/>
<path d="M101.685 323.502C101.685 323.502 104.793 324.789 109.257 323.342" stroke="#EBFFCB" stroke-width="0.715042" stroke-miterlimit="10"/>
<path d="M101.208 321.357C101.208 321.357 104.726 322.644 109.28 321.197" stroke="#EBFFCB" stroke-width="0.715042" stroke-miterlimit="10"/>
<path d="M100.254 318.814C100.254 318.814 104.492 321.095 110.615 318.575" stroke="#EBFFCB" stroke-width="0.715042" stroke-miterlimit="10"/>
<path d="M99.3008 316.22C99.3008 316.22 104.399 318.501 111.764 315.982" stroke="#EBFFCB" stroke-width="0.715042" stroke-miterlimit="10"/>
<defs>
<clipPath id="clip0_0_1118">
<rect width="144.47" height="183.95" fill="white" transform="translate(63.1416 33)"/>
</clipPath>
</defs>
</svg>
