<svg width="396" height="558" viewBox="0 0 396 558" fill="none" xmlns="http://www.w3.org/2000/svg">
<line x1="195.5" y1="2.18557e-08" x2="195.5" y2="558" stroke="white" stroke-opacity="0.33"/>
<line x1="12.3909" y1="25.6882" x2="394.673" y2="504.895" stroke="white" stroke-opacity="0.33"/>
<line x1="-4.37114e-08" y1="255.5" x2="390" y2="255.5" stroke="white" stroke-opacity="0.33"/>
<line x1="40.3203" y1="522.686" x2="327.567" y2="25.7498" stroke="white" stroke-opacity="0.33"/>
<g clip-path="url(#clip0_51_632)">
<path d="M195.235 285.32C205.946 285.32 216.658 278.099 217.363 263.656C218.908 265.897 220.345 267.958 221.055 268.972C219.153 274.681 217.98 290.691 219.21 299.994C220.097 305.434 216.836 332.885 216.827 332.95C223.947 324.316 228.286 310.418 228.673 300.762C233.576 286.4 230.842 268.488 229.532 265.61C228.239 261.379 221.314 252.963 215.688 246.687C216.228 246.838 216.666 246.954 216.976 247.034C219.721 250.283 223.618 250.995 224.6 251.214C237.616 256.091 244.721 259.969 250.554 267.367C248.192 259.304 236.177 247.843 229.076 245.164C226.736 242.555 223.096 241.312 221.757 240.925C218.62 237.851 214.438 236.106 210.934 235.814C221.847 231.683 225.531 225.804 226.881 224.392C232.347 222.97 236.64 218.508 237.181 216.238L267.47 182.847L230.779 209.971C226.437 211.95 222.5 216.032 221.341 217.299C218.968 218.306 216.51 219.666 214.188 221.113L237.872 189.742L238.278 188.678C239.326 177.243 237.727 158.396 235.387 149L228.673 186.581C219.846 198.097 211.051 209.575 202.37 221.202C200.943 219.179 197.993 219.028 195.235 221.068C192.476 219.028 189.527 219.179 188.099 221.202C179.419 209.575 170.623 198.097 161.797 186.581L155.083 149C152.743 158.396 151.142 177.243 152.192 188.678L152.598 189.742L176.282 221.113C173.96 219.666 171.502 218.306 169.129 217.299C167.97 216.032 164.032 211.95 159.691 209.971L123 182.847L153.289 216.238C153.83 218.508 158.122 222.97 163.589 224.392C164.938 225.804 168.623 231.683 179.536 235.814C176.031 236.106 171.85 237.851 168.713 240.925C167.373 241.312 163.734 242.555 161.394 245.164C154.293 247.843 142.278 259.304 139.915 267.367C145.749 259.969 152.853 256.091 165.87 251.214C166.852 250.995 170.748 250.283 173.494 247.034C173.804 246.954 174.242 246.838 174.781 246.687C169.156 252.963 162.231 261.379 160.937 265.61C159.628 268.488 156.894 286.4 161.797 300.762C162.184 310.418 166.523 324.316 173.643 332.95C173.634 332.885 170.373 305.434 171.259 299.994C172.49 290.691 171.317 274.681 169.414 268.972C170.124 267.958 171.562 265.897 173.107 263.656C173.811 278.099 184.524 285.32 195.235 285.32Z" fill="#2B4701"/>
<path d="M207.929 275.911C215 268.508 215.001 256.453 207.929 249.05C200.964 241.759 189.506 241.759 182.541 249.05C175.468 256.453 175.468 268.508 182.541 275.911C189.506 283.202 200.964 283.202 207.929 275.911Z" fill="#E0FFB0"/>
<path d="M232.727 215.213L231.553 214.2C228.951 215.579 226.872 217.542 225.328 219.07L226.388 220.302C228.349 219.28 230.703 217.612 232.727 215.213Z" fill="#E0FFB0"/>
<path d="M223.867 265.638L224.724 265.13C222.491 261.217 218.654 256.409 215.126 252.322C215.358 252.815 215.573 253.315 215.772 253.825C217.568 256.702 221.652 261.828 223.867 265.638Z" fill="#E0FFB0"/>
<path d="M223.419 297.907L225.095 298.134C226.582 289.146 227.62 273.787 225.811 269.314L225.148 269.707C224.414 276.074 223.662 292.364 223.419 297.907Z" fill="#E0FFB0"/>
<path d="M204.239 227.399L234.203 187.709C234.587 183.202 234.648 178.487 234.545 174.068L232.71 187.684C222.95 200.637 213.242 213.589 203.539 226.586C203.764 226.827 203.999 227.099 204.239 227.399Z" fill="#E0FFB0"/>
<path d="M206.871 233.19C215.186 229.342 220.564 224.752 222.858 222.559L221.994 221.555C215.798 224.41 209.122 229.614 206.528 231.728C206.668 232.192 206.785 232.679 206.871 233.19Z" fill="#E0FFB0"/>
<path d="M186.233 227.399L156.268 187.709C155.884 183.202 155.823 178.487 155.925 174.068L157.761 187.684C167.521 200.637 177.229 213.589 186.932 226.586C186.707 226.827 186.472 227.099 186.233 227.399Z" fill="#E0FFB0"/>
<path d="M167.613 222.559L168.479 221.555C174.672 224.409 181.351 229.615 183.944 231.728C183.805 232.192 183.688 232.68 183.602 233.19C175.286 229.341 169.907 224.752 167.613 222.559Z" fill="#E0FFB0"/>
<path d="M157.745 215.213L158.918 214.2C161.52 215.579 163.599 217.542 165.143 219.07L164.083 220.302C162.123 219.28 159.769 217.612 157.745 215.213Z" fill="#E0FFB0"/>
<path d="M166.604 265.639L165.747 265.13C167.979 261.217 171.816 256.41 175.344 252.324C175.112 252.816 174.896 253.317 174.698 253.826C172.901 256.704 168.818 261.829 166.604 265.639Z" fill="#E0FFB0"/>
<path d="M166.039 302.23L166.939 302.108C166.831 305.118 167.01 309.052 167.306 313.037C166.431 308.089 166.174 304.459 166.039 302.23Z" fill="#E0FFB0"/>
<path d="M201.577 240.341C205.311 232.54 199.57 228.542 199.553 228.53L198.298 227.634C198.298 227.634 198.45 230.498 195.236 230.498C192.021 230.498 192.173 227.634 192.173 227.634L190.918 228.53C190.901 228.542 185.161 232.54 188.894 240.341C190.945 239.704 193.091 239.386 195.236 239.386C197.38 239.386 199.526 239.704 201.577 240.341Z" fill="#E0FFB0"/>
<path d="M206.36 269.824C202.126 277.157 188.343 277.157 184.11 269.824C184.11 269.824 184.291 272.171 186.24 274.554C186.24 274.554 178.934 272.901 177.616 266.36C178.308 269.863 179.95 273.199 182.541 275.911C186.023 279.556 190.63 281.379 195.235 281.379C199.84 281.379 204.446 279.556 207.929 275.911C210.519 273.199 212.162 269.863 212.853 266.36C211.536 272.901 204.229 274.554 204.229 274.554C206.179 272.171 206.36 269.824 206.36 269.824Z" fill="#70750B"/>
<path d="M188.894 240.341C193.119 236.813 197.352 236.813 201.577 240.341C197.477 239.068 192.994 239.068 188.894 240.341Z" fill="#70750B"/>
<path d="M205.345 258.919C208.239 255.878 209.529 251.772 208.305 249.456C208.183 249.32 208.056 249.184 207.929 249.05C207.632 248.739 207.327 248.441 207.014 248.157C203.66 245.107 199.448 243.582 195.235 243.582C191.022 243.582 186.81 245.107 183.457 248.157C183.144 248.441 182.838 248.739 182.541 249.05C182.414 249.184 182.288 249.32 182.165 249.456C180.942 251.772 182.231 255.878 185.125 258.919C185.125 258.919 184.873 256.896 185.305 255.271C185.305 255.271 187.363 261.699 195.235 261.699C203.108 261.699 205.165 255.271 205.165 255.271C205.598 256.896 205.345 258.919 205.345 258.919Z" fill="#F9FCBA"/>
<path d="M218.125 223.58C218.125 223.58 216.316 227.542 211.667 230.726C217.285 227.541 221.04 224.297 222.858 222.559L221.993 221.555C220.711 222.146 219.408 222.837 218.125 223.58Z" fill="#F9FCBA"/>
<path d="M229.239 215.653C229.239 215.653 230.06 217.79 227.775 219.505C229.401 218.485 231.162 217.067 232.726 215.213L231.553 214.2C230.73 214.637 229.959 215.132 229.239 215.653Z" fill="#F9FCBA"/>
<path d="M220.221 258.543C218.593 256.422 216.823 254.289 215.126 252.322C215.358 252.815 215.573 253.315 215.772 253.825C216.861 255.568 218.789 258.138 220.633 260.739C220.443 259.93 220.311 259.193 220.221 258.543Z" fill="#70750B"/>
<path d="M172.346 223.58C172.346 223.58 174.155 227.542 178.804 230.726C173.186 227.541 169.431 224.297 167.613 222.559L168.478 221.555C169.76 222.146 171.063 222.837 172.346 223.58Z" fill="#F9FCBA"/>
<path d="M161.231 215.653C161.231 215.653 160.411 217.79 162.696 219.505C161.07 218.485 159.309 217.067 157.745 215.213L158.918 214.2C159.741 214.637 160.512 215.132 161.231 215.653Z" fill="#F9FCBA"/>
<path d="M170.25 258.543C171.878 256.422 173.647 254.289 175.345 252.322C175.113 252.815 174.898 253.315 174.699 253.825C173.61 255.568 171.682 258.138 169.838 260.739C170.028 259.93 170.16 259.193 170.25 258.543Z" fill="#70750B"/>
<path d="M195.236 233.07C203.856 233.07 200.384 229.265 200.384 229.265C199.911 228.779 199.558 228.533 199.554 228.53L198.299 227.634C198.299 227.634 198.451 230.498 195.236 230.498C192.021 230.498 192.173 227.634 192.173 227.634L190.918 228.53C190.913 228.533 190.561 228.779 190.088 229.265C190.088 229.265 186.616 233.07 195.236 233.07Z" fill="#F9FCBA"/>
<path d="M156.268 187.709L157.761 187.684L155.927 174.068C155.823 178.487 155.885 183.202 156.268 187.709Z" fill="#F9FCBA"/>
<path d="M234.544 174.068L232.71 187.684L234.203 187.709C234.586 183.202 234.648 178.487 234.544 174.068Z" fill="#F9FCBA"/>
<path d="M209.721 231.786C209.249 230.579 210.05 228.981 210.05 228.981C208.566 230.09 207.344 231.062 206.528 231.728C206.668 232.192 206.784 232.679 206.87 233.19C207.863 232.731 208.813 232.261 209.721 231.786Z" fill="#70750B"/>
<path d="M180.751 231.786C181.222 230.579 180.422 228.981 180.422 228.981C181.905 230.09 183.127 231.062 183.944 231.728C183.804 232.192 183.687 232.679 183.601 233.19C182.609 232.731 181.658 232.261 180.751 231.786Z" fill="#70750B"/>
<path d="M223.984 286.234C226.343 284.351 226.703 281.645 226.703 281.645C226.899 276.279 226.694 271.499 225.811 269.314L225.148 269.707C224.734 273.297 224.315 280.041 223.984 286.234Z" fill="#F9FCBA"/>
<path d="M167.053 297.907L165.378 298.134C163.891 289.146 162.853 273.787 164.662 269.314L165.324 269.707C166.059 276.074 166.811 292.364 167.053 297.907Z" fill="#E0FFB0"/>
<path d="M166.489 286.234C164.129 284.351 163.769 281.645 163.769 281.645C163.574 276.279 163.778 271.499 164.662 269.314L165.324 269.707C165.738 273.297 166.158 280.041 166.489 286.234Z" fill="#F9FCBA"/>
<path d="M224.432 302.23L223.533 302.108C223.641 305.118 223.461 309.052 223.165 313.037C224.041 308.089 224.298 304.459 224.432 302.23Z" fill="#E0FFB0"/>
</g>
<defs>
<clipPath id="clip0_51_632">
<rect width="144.47" height="183.95" fill="white" transform="translate(123 149)"/>
</clipPath>
</defs>
</svg>
