<svg width="41" height="40" viewBox="0 0 41 40" fill="none" xmlns="http://www.w3.org/2000/svg">
<g clip-path="url(#clip0_198_127)">
<path d="M20.5 0C15.1969 0 10.1062 2.10844 6.35938 5.85781C2.60866 9.6087 0.501073 14.6956 0.5 20C0.5 25.3022 2.60938 30.3928 6.35938 34.1422C10.1062 37.8916 15.1969 40 20.5 40C25.8031 40 30.8937 37.8916 34.6406 34.1422C38.3906 30.3928 40.5 25.3022 40.5 20C40.5 14.6978 38.3906 9.60719 34.6406 5.85781C30.8937 2.10844 25.8031 0 20.5 0Z" fill="url(#paint0_linear_198_127)"/>
<path d="M9.55315 19.7888C15.3844 17.2488 19.2719 15.5742 21.2157 14.765C26.7719 12.4547 27.925 12.0534 28.6782 12.0399C28.8438 12.0372 29.2125 12.0781 29.4532 12.2727C29.6532 12.4367 29.7094 12.6586 29.7375 12.8144C29.7625 12.97 29.7969 13.3247 29.7688 13.6016C29.4688 16.7641 28.1657 24.4384 27.5032 27.9806C27.225 29.4794 26.6719 29.9819 26.1375 30.0309C24.975 30.1378 24.0938 29.2634 22.9688 28.5263C21.2094 27.3722 20.2157 26.6541 18.5063 25.5281C16.5313 24.2269 17.8125 23.5116 18.9375 22.3428C19.2313 22.0369 24.35 17.3822 24.4469 16.96C24.4594 16.9072 24.4719 16.7103 24.3532 16.6066C24.2375 16.5025 24.0657 16.5381 23.9407 16.5663C23.7625 16.6063 20.9532 18.465 15.5032 22.1422C14.7063 22.6903 13.9844 22.9575 13.3344 22.9434C12.6219 22.9281 11.2469 22.5397 10.225 22.2078C8.97503 21.8006 7.97815 21.5853 8.06565 20.8938C8.1094 20.5338 8.60628 20.1653 9.55315 19.7888Z" fill="white"/>
</g>
<defs>
<linearGradient id="paint0_linear_198_127" x1="2000.5" y1="0" x2="2000.5" y2="4000" gradientUnits="userSpaceOnUse">
<stop stop-color="#2AABEE"/>
<stop offset="1" stop-color="#229ED9"/>
</linearGradient>
<clipPath id="clip0_198_127">
<rect width="40" height="40" fill="white" transform="translate(0.5)"/>
</clipPath>
</defs>
</svg>
