<svg width="40" height="46" viewBox="0 0 40 46" fill="none" xmlns="http://www.w3.org/2000/svg">
<path d="M5.71429 3C2.5625 3 0 5.5625 0 8.71429V37.2857C0 40.4375 2.5625 43 5.71429 43H34.2857C37.4375 43 40 40.4375 40 37.2857V8.71429C40 5.5625 37.4375 3 34.2857 3H5.71429ZM32.2411 10.5L22.9732 21.0893L33.875 35.5H25.3393L18.6607 26.7589L11.0089 35.5H6.76786L16.6786 24.1696L6.22321 10.5H14.9732L21.0179 18.4911L28 10.5H32.2411ZM28.8661 32.9643L13.6964 12.9018H11.1696L26.5089 32.9643H28.8571H28.8661Z" fill="#F5F5F5"/>
</svg>
