<svg width="159" height="167" viewBox="0 0 159 167" fill="none" xmlns="http://www.w3.org/2000/svg">
<path d="M0 8C0 3.58172 3.58172 0 8 0H159V167H8C3.58173 167 0 163.418 0 159V8Z" fill="#EEFDB6"/>
<path d="M64.6365 93.8645C60.6279 96.2513 50.1179 101.125 56.5192 107.224C59.6462 110.203 63.1289 112.333 67.5075 112.333H92.4925C96.8711 112.333 100.354 110.203 103.481 107.224C109.882 101.125 99.3721 96.2513 95.3635 93.8645C85.9636 88.2673 74.0364 88.2673 64.6365 93.8645Z" stroke="#70750B" stroke-width="3" stroke-linecap="round" stroke-linejoin="round"/>
<path d="M92.75 68.4167C92.75 75.4583 87.0417 81.1667 80 81.1667C72.9584 81.1667 67.25 75.4583 67.25 68.4167C67.25 61.375 72.9584 55.6667 80 55.6667C87.0417 55.6667 92.75 61.375 92.75 68.4167Z" stroke="#70750B" stroke-width="3"/>
</svg>
